HIERARCHY
ROOT mixamorig:Hips
{
	OFFSET -0.000008 104.274872 1.554316
	CHANNELS 6 Xposition Yposition Zposition Xrotation Yrotation Zrotation
	JOINT mixamorig:Spine
	{
		OFFSET -0.000005 10.181595 0.131519
		CHANNELS 6 Xposition Yposition Zposition Xrotation Yrotation Zrotation
		JOINT mixamorig:Spine1
		{
			OFFSET -0.000000 9.893959 -1.470707
			CHANNELS 6 Xposition Yposition Zposition Xrotation Yrotation Zrotation
			JOINT mixamorig:Spine2
			{
				OFFSET -0.000000 9.220757 -1.370641
				CHANNELS 6 Xposition Yposition Zposition Xrotation Yrotation Zrotation
				JOINT mixamorig:Neck
				{
					OFFSET 0.000001 16.740417 -2.049036
					CHANNELS 6 Xposition Yposition Zposition Xrotation Yrotation Zrotation
					JOINT mixamorig:Head
					{
						OFFSET 0.000000 9.617874 1.685006
						CHANNELS 6 Xposition Yposition Zposition Xrotation Yrotation Zrotation
						JOINT mixamorig:HeadTop_End
						{
							OFFSET 0.000002 22.037354 7.501101
							CHANNELS 6 Xposition Yposition Zposition Xrotation Yrotation Zrotation
							End Site
							{
								OFFSET 0.000168 2310.654297 -282.823242
							}
						}
					}
				}
				JOINT mixamorig:RightShoulder
				{
					OFFSET -4.569970 11.014908 -2.160885
					CHANNELS 6 Xposition Yposition Zposition Xrotation Yrotation Zrotation
					JOINT mixamorig:RightArm
					{
						OFFSET -10.592851 -0.524811 -2.232101
						CHANNELS 6 Xposition Yposition Zposition Xrotation Yrotation Zrotation
						JOINT mixamorig:RightForeArm
						{
							OFFSET -27.841511 0.000031 -0.000004
							CHANNELS 6 Xposition Yposition Zposition Xrotation Yrotation Zrotation
							JOINT mixamorig:RightHand
							{
								OFFSET -28.328831 -0.000015 0.000015
								CHANNELS 6 Xposition Yposition Zposition Xrotation Yrotation Zrotation
								JOINT mixamorig:RightHandThumb1
								{
									OFFSET -2.464806 -1.573990 2.681852
									CHANNELS 6 Xposition Yposition Zposition Xrotation Yrotation Zrotation
									JOINT mixamorig:RightHandThumb2
									{
										OFFSET -3.215179 -1.872803 1.924282
										CHANNELS 6 Xposition Yposition Zposition Xrotation Yrotation Zrotation
										JOINT mixamorig:RightHandThumb3
										{
											OFFSET -2.654831 -1.527969 1.512609
											CHANNELS 6 Xposition Yposition Zposition Xrotation Yrotation Zrotation
											JOINT mixamorig:RightHandThumb4
											{
												OFFSET -2.018814 -1.152008 1.108052
												CHANNELS 6 Xposition Yposition Zposition Xrotation Yrotation Zrotation
												End Site
												{
													OFFSET -188.809540 -114.533607 132.431396
												}
											}
										}
									}
								}
								JOINT mixamorig:RightHandIndex1
								{
									OFFSET -9.108284 -0.517868 2.259835
									CHANNELS 6 Xposition Yposition Zposition Xrotation Yrotation Zrotation
									JOINT mixamorig:RightHandIndex2
									{
										OFFSET -3.699989 0.000000 0.001215
										CHANNELS 6 Xposition Yposition Zposition Xrotation Yrotation Zrotation
										JOINT mixamorig:RightHandIndex3
										{
											OFFSET -2.850006 0.000031 -0.000522
											CHANNELS 6 Xposition Yposition Zposition Xrotation Yrotation Zrotation
											JOINT mixamorig:RightHandIndex4
											{
												OFFSET -2.772186 -0.000015 -0.000020
												CHANNELS 6 Xposition Yposition Zposition Xrotation Yrotation Zrotation
												End Site
												{
													OFFSET -277.218445 0.000000 -0.050231
												}
											}
										}
									}
								}
								JOINT mixamorig:RightHandMiddle1
								{
									OFFSET -9.532516 -0.000031 -0.000023
									CHANNELS 6 Xposition Yposition Zposition Xrotation Yrotation Zrotation
									JOINT mixamorig:RightHandMiddle2
									{
										OFFSET -3.700005 -0.000015 0.003713
										CHANNELS 6 Xposition Yposition Zposition Xrotation Yrotation Zrotation
										JOINT mixamorig:RightHandMiddle3
										{
											OFFSET -2.949974 0.000015 -0.002054
											CHANNELS 6 Xposition Yposition Zposition Xrotation Yrotation Zrotation
											JOINT mixamorig:RightHandMiddle4
											{
												OFFSET -2.946640 0.000000 -0.000156
												CHANNELS 6 Xposition Yposition Zposition Xrotation Yrotation Zrotation
												End Site
												{
													OFFSET -294.664337 0.000000 -0.113670
												}
											}
										}
									}
								}
								JOINT mixamorig:RightHandRing1
								{
									OFFSET -9.103600 -0.043076 -1.865134
									CHANNELS 6 Xposition Yposition Zposition Xrotation Yrotation Zrotation
									JOINT mixamorig:RightHandRing2
									{
										OFFSET -3.379288 0.000000 -0.001055
										CHANNELS 6 Xposition Yposition Zposition Xrotation Yrotation Zrotation
										JOINT mixamorig:RightHandRing3
										{
											OFFSET -2.889687 -0.000015 0.000379
											CHANNELS 6 Xposition Yposition Zposition Xrotation Yrotation Zrotation
											JOINT mixamorig:RightHandRing4
											{
												OFFSET -2.638809 -0.000015 0.000941
												CHANNELS 6 Xposition Yposition Zposition Xrotation Yrotation Zrotation
												End Site
												{
													OFFSET -263.880371 0.000000 0.516020
												}
											}
										}
									}
								}
								JOINT mixamorig:RightHandPinky1
								{
									OFFSET -8.076683 -0.486710 -3.806280
									CHANNELS 6 Xposition Yposition Zposition Xrotation Yrotation Zrotation
									JOINT mixamorig:RightHandPinky2
									{
										OFFSET -3.600014 -0.000015 -0.003747
										CHANNELS 6 Xposition Yposition Zposition Xrotation Yrotation Zrotation
										JOINT mixamorig:RightHandPinky3
										{
											OFFSET -2.099983 0.000000 -0.005739
											CHANNELS 6 Xposition Yposition Zposition Xrotation Yrotation Zrotation
											JOINT mixamorig:RightHandPinky4
											{
												OFFSET -2.115768 -0.000031 -0.003680
												CHANNELS 6 Xposition Yposition Zposition Xrotation Yrotation Zrotation
												End Site
												{
													OFFSET -211.577087 0.000000 -0.350686
												}
											}
										}
									}
								}
							}
						}
					}
				}
				JOINT mixamorig:LeftShoulder
				{
					OFFSET 4.570447 11.014725 -2.160855
					CHANNELS 6 Xposition Yposition Zposition Xrotation Yrotation Zrotation
					JOINT mixamorig:LeftArm
					{
						OFFSET 10.592371 -0.524597 -2.232119
						CHANNELS 6 Xposition Yposition Zposition Xrotation Yrotation Zrotation
						JOINT mixamorig:LeftForeArm
						{
							OFFSET 27.841532 -0.000031 0.000026
							CHANNELS 6 Xposition Yposition Zposition Xrotation Yrotation Zrotation
							JOINT mixamorig:LeftHand
							{
								OFFSET 28.328846 -0.000061 0.000022
								CHANNELS 6 Xposition Yposition Zposition Xrotation Yrotation Zrotation
								JOINT mixamorig:LeftHandThumb1
								{
									OFFSET 2.466141 -1.576172 2.681732
									CHANNELS 6 Xposition Yposition Zposition Xrotation Yrotation Zrotation
									JOINT mixamorig:LeftHandThumb2
									{
										OFFSET 3.217812 -1.872070 1.916482
										CHANNELS 6 Xposition Yposition Zposition Xrotation Yrotation Zrotation
										JOINT mixamorig:LeftHandThumb3
										{
											OFFSET 2.656029 -1.528778 1.514513
											CHANNELS 6 Xposition Yposition Zposition Xrotation Yrotation Zrotation
											JOINT mixamorig:LeftHandThumb4
											{
												OFFSET 2.020889 -1.154053 1.115139
												CHANNELS 6 Xposition Yposition Zposition Xrotation Yrotation Zrotation
												End Site
												{
													OFFSET 190.885437 -115.081749 130.048782
												}
											}
										}
									}
								}
								JOINT mixamorig:LeftHandIndex1
								{
									OFFSET 9.109314 -0.518021 2.259871
									CHANNELS 6 Xposition Yposition Zposition Xrotation Yrotation Zrotation
									JOINT mixamorig:LeftHandIndex2
									{
										OFFSET 3.699989 0.000000 -0.000322
										CHANNELS 6 Xposition Yposition Zposition Xrotation Yrotation Zrotation
										JOINT mixamorig:LeftHandIndex3
										{
											OFFSET 2.850006 0.000000 0.000352
											CHANNELS 6 Xposition Yposition Zposition Xrotation Yrotation Zrotation
											JOINT mixamorig:LeftHandIndex4
											{
												OFFSET 2.774864 -0.000031 -0.000027
												CHANNELS 6 Xposition Yposition Zposition Xrotation Yrotation Zrotation
												End Site
												{
													OFFSET 277.486267 0.000000 -0.009857
												}
											}
										}
									}
								}
								JOINT mixamorig:LeftHandMiddle1
								{
									OFFSET 9.533394 0.000061 0.000044
									CHANNELS 6 Xposition Yposition Zposition Xrotation Yrotation Zrotation
									JOINT mixamorig:LeftHandMiddle2
									{
										OFFSET 3.699989 -0.000015 -0.000231
										CHANNELS 6 Xposition Yposition Zposition Xrotation Yrotation Zrotation
										JOINT mixamorig:LeftHandMiddle3
										{
											OFFSET 2.949997 -0.000015 -0.000059
											CHANNELS 6 Xposition Yposition Zposition Xrotation Yrotation Zrotation
											JOINT mixamorig:LeftHandMiddle4
											{
												OFFSET 2.952896 0.000031 0.000063
												CHANNELS 6 Xposition Yposition Zposition Xrotation Yrotation Zrotation
												End Site
												{
													OFFSET 295.289337 0.000000 0.022810
												}
											}
										}
									}
								}
								JOINT mixamorig:LeftHandRing1
								{
									OFFSET 9.104523 -0.042999 -1.865074
									CHANNELS 6 Xposition Yposition Zposition Xrotation Yrotation Zrotation
									JOINT mixamorig:LeftHandRing2
									{
										OFFSET 3.150009 -0.000031 0.000043
										CHANNELS 6 Xposition Yposition Zposition Xrotation Yrotation Zrotation
										JOINT mixamorig:LeftHandRing3
										{
											OFFSET 2.949982 -0.000015 0.000040
											CHANNELS 6 Xposition Yposition Zposition Xrotation Yrotation Zrotation
											JOINT mixamorig:LeftHandRing4
											{
												OFFSET 2.644348 0.000000 0.000057
												CHANNELS 6 Xposition Yposition Zposition Xrotation Yrotation Zrotation
												End Site
												{
													OFFSET 264.434631 0.000000 0.012105
												}
											}
										}
									}
								}
								JOINT mixamorig:LeftHandPinky1
								{
									OFFSET 8.077789 -0.486847 -3.806259
									CHANNELS 6 Xposition Yposition Zposition Xrotation Yrotation Zrotation
									JOINT mixamorig:LeftHandPinky2
									{
										OFFSET 3.599953 0.000031 0.014727
										CHANNELS 6 Xposition Yposition Zposition Xrotation Yrotation Zrotation
										JOINT mixamorig:LeftHandPinky3
										{
											OFFSET 2.100021 0.000015 0.007705
											CHANNELS 6 Xposition Yposition Zposition Xrotation Yrotation Zrotation
											JOINT mixamorig:LeftHandPinky4
											{
												OFFSET 2.125504 0.000031 0.007517
												CHANNELS 6 Xposition Yposition Zposition Xrotation Yrotation Zrotation
												End Site
												{
													OFFSET 212.550781 0.000000 0.625752
												}
											}
										}
									}
								}
							}
						}
					}
				}
			}
		}
	}
	JOINT mixamorig:RightUpLeg
	{
		OFFSET -8.207787 -6.751648 -1.599560
		CHANNELS 6 Xposition Yposition Zposition Xrotation Yrotation Zrotation
		JOINT mixamorig:RightLeg
		{
			OFFSET -0.000002 -44.370117 0.345942
			CHANNELS 6 Xposition Yposition Zposition Xrotation Yrotation Zrotation
			JOINT mixamorig:RightFoot
			{
				OFFSET 0.000003 -44.423679 -3.043532
				CHANNELS 6 Xposition Yposition Zposition Xrotation Yrotation Zrotation
				JOINT mixamorig:RightToeBase
				{
					OFFSET -0.000002 -8.728671 10.710558
					CHANNELS 6 Xposition Yposition Zposition Xrotation Yrotation Zrotation
					JOINT mixamorig:RightToe_End
					{
						OFFSET -0.000001 -0.000679 9.278119
						CHANNELS 6 Xposition Yposition Zposition Xrotation Yrotation Zrotation
						End Site
						{
							OFFSET 0.000000 -0.067690 927.812134
						}
					}
				}
			}
		}
	}
	JOINT mixamorig:LeftUpLeg
	{
		OFFSET 8.207793 -6.751686 -1.599556
		CHANNELS 6 Xposition Yposition Zposition Xrotation Yrotation Zrotation
		JOINT mixamorig:LeftLeg
		{
			OFFSET -0.000004 -44.370014 0.346954
			CHANNELS 6 Xposition Yposition Zposition Xrotation Yrotation Zrotation
			JOINT mixamorig:LeftFoot
			{
				OFFSET -0.000001 -44.423672 -3.044401
				CHANNELS 6 Xposition Yposition Zposition Xrotation Yrotation Zrotation
				JOINT mixamorig:LeftToeBase
				{
					OFFSET -0.000002 -8.728669 10.710558
					CHANNELS 6 Xposition Yposition Zposition Xrotation Yrotation Zrotation
					JOINT mixamorig:LeftToe_End
					{
						OFFSET -0.000003 -0.000679 9.278133
						CHANNELS 6 Xposition Yposition Zposition Xrotation Yrotation Zrotation
						End Site
						{
							OFFSET 0.000000 -0.068021 927.813477
						}
					}
				}
			}
		}
	}
}
MOTION
Frames: 3
Frame Time: 0.033333
0.000006 104.270477 1.554256 0.000010 0.000003 -0.000113 -0.000005 10.181587 0.131522 0.000001 -0.000003 0.000084 -0.000000 9.893967 -1.470711 0.000001 0.000000 -0.000000 -0.000000 9.220802 -1.370642 0.000000 -0.000000 -0.000000 0.000001 16.740433 -2.049030 0.000000 -0.000000 -0.000000 0.000000 9.617859 1.685014 0.000000 0.000000 0.000000 0.000002 22.037384 7.501101 0.000000 -0.000000 0.000000 -4.569968 11.014880 -2.160881 0.000008 0.000001 -0.000038 -10.592783 -0.524831 -2.231747 68.277884 67.023731 -48.359078 -27.841473 0.000029 0.000600 227.784623 70.532071 -244.128337 -28.328829 0.000021 0.000023 -0.000321 -0.000044 0.000007 -2.464569 -1.574202 2.682231 -125.224442 -38.989612 -60.475772 -3.214972 -1.873064 1.924525 83.800233 -144.419979 139.577033 -2.654749 -1.528276 1.512856 -83.567993 -19.846460 -28.953001 -2.018822 -1.152009 1.108057 -0.000007 -0.000007 0.000000 -9.108331 -0.518029 2.260173 -80.424146 14.538029 12.332435 -3.700049 -0.000144 0.001544 -78.696053 19.107956 15.704804 -2.850052 -0.000117 -0.000165 -77.994019 15.445906 12.532172 -2.772169 -0.000015 -0.000014 -0.000001 -0.000000 0.000002 -9.532547 -0.000235 0.000286 -75.548763 10.614692 8.306206 -3.700040 -0.000158 0.004028 -76.510775 14.706362 11.575185 -2.950029 -0.000188 -0.001717 -76.272463 12.182337 9.574876 -2.946632 0.000014 -0.000158 0.000000 0.000000 -0.000000 -9.103648 -0.043234 -1.864817 -75.385378 10.305812 7.949656 -3.379308 -0.000189 -0.000738 -76.637175 9.778475 7.744436 -2.889743 -0.000211 0.000691 -76.187290 7.348332 5.791157 -2.638814 0.000001 0.000929 0.000000 -0.000001 0.000002 -8.076710 -0.486878 -3.806008 -72.746419 10.503089 7.674705 -3.600010 -0.000252 -0.003442 -78.240111 3.821625 2.870905 -2.099984 -0.000208 -0.005447 -80.335135 1.020941 0.694870 -2.115781 -0.000024 -0.003688 -0.000001 0.000000 -0.000004 4.570446 11.014691 -2.160851 -0.000018 0.000010 -0.000021 10.592508 -0.524562 -2.232379 56.389441 -66.399008 38.661043 27.841778 -0.000071 -0.000104 210.870179 -71.718557 221.813330 28.328833 -0.000028 0.000029 0.000024 -0.000089 -0.000000 2.466115 -1.576172 2.681883 -1.428106 495.847473 -59.381214 3.217779 -1.872024 1.916519 211.457794 46.348602 87.255988 2.656049 -1.528743 1.514613 211.291656 32.899047 78.885079 2.020883 -1.154064 1.115156 -0.000001 0.000002 0.000003 9.109228 -0.517784 2.260105 -118.983630 -17.710687 -29.610929 3.699896 0.000225 -0.000081 245.546639 -18.398921 -28.253634 2.849942 0.000248 0.000594 252.206757 -16.118429 -21.973685 2.774887 -0.000061 -0.000027 0.000000 -0.000002 0.000000 9.533335 0.000023 0.000121 531.802572 -41.982154 158.821200 3.700031 0.000127 -0.000394 436.142494 -9.230426 7.234108 2.950000 0.000049 -0.000180 402.329643 6.400004 -2.479275 2.952869 -0.000014 0.000067 -0.000001 -0.000002 -0.000001 9.104548 -0.043028 -1.865036 163.391266 -39.440350 135.692336 3.149956 0.000215 -0.000155 434.911968 14.435222 -11.082270 2.949915 0.000086 -0.000170 402.640089 30.708500 -12.233767 2.644322 0.000024 0.000068 -0.000002 0.000000 0.000001 8.077751 -0.486905 -3.806197 533.388105 -25.679966 153.931591 3.599886 0.000259 0.014516 265.834350 161.920686 163.424201 2.099904 0.000098 0.007533 407.600910 32.696430 -14.722678 2.125508 -0.000017 0.007512 0.000000 0.000001 -0.000002 -8.207786 -6.751667 -1.599560 -0.077001 -0.000003 0.000080 -0.000002 -44.370110 0.345938 0.153719 -0.000000 -0.000000 0.000000 -44.423679 -3.043532 -0.076700 0.000000 -0.000002 -0.000006 -8.728667 10.710559 -0.000009 -0.000000 -0.000000 -0.000001 -0.000679 9.278123 0.000000 -0.000000 -0.000000 8.207792 -6.751710 -1.599556 -0.074518 -0.000003 0.000081 -0.000002 -44.370014 0.346960 0.148822 0.000002 0.000000 -0.000001 -44.423664 -3.044403 -0.074314 0.000000 -0.000002 -0.000004 -8.728671 10.710558 0.000007 -0.000000 -0.000000 0.000000 -0.000680 9.278137 -0.000000 0.000000 -0.000001 
0.000006 104.270477 1.554256 0.000010 0.000003 -0.000113 -0.000005 10.181587 0.131522 0.000001 -0.000003 0.000084 -0.000000 9.893967 -1.470711 0.000001 0.000000 -0.000000 -0.000000 9.220802 -1.370642 0.000000 -0.000000 -0.000000 0.000001 16.740433 -2.049030 0.000000 -0.000000 -0.000000 0.000000 9.617859 1.685014 0.000000 0.000000 0.000000 0.000002 22.037384 7.501101 0.000000 -0.000000 0.000000 -4.569968 11.014880 -2.160881 0.000008 0.000001 -0.000038 -10.592787 -0.524843 -2.231740 68.357804 66.509186 -48.005858 -27.841471 0.000004 0.000600 227.331372 70.525665 -243.583097 -28.328829 0.000021 0.000006 -0.000322 -0.000044 0.000007 -2.464595 -1.574211 2.682228 -125.477719 -37.761992 -59.950114 -3.214958 -1.873057 1.924530 82.507032 -144.865416 138.958477 -2.654754 -1.528272 1.512872 -83.366502 -18.825332 -28.551780 -2.018842 -1.151987 1.108060 -0.000004 -0.000004 0.000005 -9.108337 -0.518027 2.260182 -80.045692 15.066468 12.696283 -3.700059 -0.000147 0.001556 -78.295497 19.401680 15.836038 -2.850065 -0.000147 -0.000185 -77.624239 15.515157 12.506414 -2.772156 -0.000013 -0.000026 -0.000001 -0.000001 0.000000 -9.532540 -0.000220 0.000284 -75.701295 11.089394 8.698325 -3.700052 -0.000159 0.004064 -77.901852 14.436196 11.644857 -2.950026 -0.000168 -0.001732 -77.928996 11.767404 9.524818 -2.946633 0.000003 -0.000170 0.000000 -0.000000 -0.000003 -9.103643 -0.043220 -1.864812 -75.864940 10.545401 8.205882 -3.379295 -0.000206 -0.000724 -78.512744 9.250773 7.575508 -2.889742 -0.000163 0.000696 -78.171727 6.735175 5.501935 -2.638808 -0.000016 0.000944 0.000000 0.000000 -0.000000 -8.076709 -0.486860 -3.806006 -72.876595 10.756599 7.881277 -3.600002 -0.000241 -0.003448 -78.789340 3.453209 2.594644 -2.099991 -0.000225 -0.005436 -80.744536 0.485988 0.243453 -2.115768 -0.000056 -0.003677 -0.000000 0.000002 -0.000003 4.570446 11.014691 -2.160851 -0.000018 0.000010 -0.000021 10.592507 -0.524545 -2.232377 56.308704 -65.830251 38.214061 27.841785 -0.000058 -0.000104 210.531552 -71.658602 221.414802 28.328840 -0.000029 0.000022 0.000021 -0.000089 -0.000000 2.466122 -1.576139 2.681881 -1.378044 496.165323 -59.673150 3.217814 -1.872036 1.916548 211.165106 45.417725 86.890941 2.656040 -1.528768 1.514629 212.200686 31.713101 77.109161 2.020879 -1.154068 1.115146 0.000001 0.000003 0.000008 9.109236 -0.517771 2.260099 -119.747819 -17.998918 -30.521479 3.699895 0.000226 -0.000081 244.367366 -18.390925 -28.863724 2.849939 0.000241 0.000609 249.746058 -16.204170 -23.089009 2.774880 -0.000030 -0.000023 -0.000000 -0.000001 -0.000000 9.533384 0.000034 0.000112 525.051504 -42.204692 142.426301 3.700037 0.000140 -0.000389 435.294786 -9.533285 7.359048 2.950008 0.000074 -0.000191 404.061314 6.740978 -2.729541 2.952874 -0.000032 0.000074 0.000001 -0.000002 -0.000000 9.104612 -0.043000 -1.865051 154.074642 -38.474797 113.186828 3.149946 0.000199 -0.000145 432.176805 13.872292 -10.133916 2.949913 0.000073 -0.000151 402.847781 30.428780 -12.182154 2.644319 -0.000004 0.000058 -0.000003 -0.000001 -0.000003 8.077871 -0.486832 -3.806216 523.477391 -25.690430 117.392565 3.599897 0.000232 0.014499 263.884960 163.067638 165.017876 2.099906 0.000085 0.007516 407.958156 33.163601 -15.069685 2.125511 -0.000013 0.007518 0.000001 -0.000002 0.000000 -8.207786 -6.751667 -1.599560 -0.077001 -0.000003 0.000080 -0.000002 -44.370110 0.345938 0.153719 -0.000000 -0.000000 0.000000 -44.423679 -3.043532 -0.076700 0.000000 -0.000002 -0.000006 -8.728667 10.710559 -0.000009 -0.000000 -0.000000 -0.000001 -0.000679 9.278123 0.000000 -0.000000 -0.000000 8.207792 -6.751710 -1.599556 -0.074518 -0.000003 0.000081 -0.000002 -44.370014 0.346960 0.148822 0.000002 0.000000 -0.000001 -44.423664 -3.044403 -0.074314 0.000000 -0.000002 -0.000004 -8.728671 10.710558 0.000007 -0.000000 -0.000000 0.000000 -0.000680 9.278137 -0.000000 0.000000 -0.000001 
0.000006 104.270477 1.554256 0.000010 0.000003 -0.000113 -0.000005 10.181587 0.131522 0.000001 -0.000003 0.000084 -0.000000 9.893967 -1.470711 0.000001 0.000000 -0.000000 -0.000000 9.220802 -1.370642 0.000000 -0.000000 -0.000000 0.000001 16.740433 -2.049030 0.000000 -0.000000 -0.000000 0.000000 9.617859 1.685014 0.000000 0.000000 0.000000 0.000002 22.037384 7.501101 0.000000 -0.000000 0.000000 -4.569968 11.014880 -2.160881 0.000008 0.000001 -0.000038 -10.592787 -0.524839 -2.231751 68.567470 65.774408 -47.577711 -27.841480 0.000020 0.000597 227.386013 70.590968 -243.587605 -28.328829 0.000007 0.000024 -0.000317 -0.000045 0.000007 -2.464612 -1.574201 2.682229 -126.238862 -34.935642 -58.844129 -3.214977 -1.873044 1.924542 80.571083 -145.544378 138.043519 -2.654748 -1.528273 1.512879 -84.044262 -17.649550 -28.494088 -2.018834 -1.152001 1.108067 -0.000002 0.000003 0.000005 -9.108346 -0.518009 2.260189 -81.487456 15.143516 13.088002 -3.700061 -0.000148 0.001599 -79.633975 19.667875 16.436417 -2.850062 -0.000125 -0.000177 -78.737123 15.458979 12.708656 -2.772167 -0.000004 -0.000042 0.000001 -0.000001 -0.000002 -9.532544 -0.000215 0.000300 -77.589112 10.822915 8.782478 -3.700053 -0.000161 0.004033 -79.270936 14.466651 11.955486 -2.950023 -0.000184 -0.001734 -79.171134 11.714650 9.693076 -2.946627 -0.000014 -0.000167 -0.000000 0.000001 0.000001 -9.103642 -0.043231 -1.864817 -77.029760 10.131952 8.048394 -3.379299 -0.000186 -0.000728 -79.847001 9.309556 7.805999 -2.889741 -0.000180 0.000699 -79.497309 6.784324 5.673924 -2.638817 -0.000001 0.000944 0.000000 -0.000000 0.000000 -8.076708 -0.486880 -3.806020 -74.094801 10.072119 7.537536 -3.599998 -0.000255 -0.003422 -79.652560 3.004704 2.258378 -2.099975 -0.000203 -0.005443 -80.736859 0.122594 -0.066602 -2.115768 -0.000056 -0.003673 -0.000000 -0.000001 -0.000003 4.570446 11.014691 -2.160851 -0.000018 0.000010 -0.000021 10.592509 -0.524546 -2.232376 56.557515 -64.842749 37.729207 27.841772 -0.000042 -0.000104 210.750254 -71.759545 221.628765 28.328840 0.000000 0.000025 0.000015 -0.000088 -0.000000 2.466120 -1.576138 2.681879 1.096300 496.221166 -62.883721 3.217787 -1.872024 1.916534 210.117997 44.147525 87.023181 2.656069 -1.528761 1.514604 212.170647 30.220657 75.964305 2.020879 -1.154065 1.115150 0.000001 0.000001 0.000004 9.109232 -0.517745 2.260087 -120.975108 -18.742732 -32.498686 3.699898 0.000236 -0.000088 242.234134 -19.125530 -31.200181 2.849936 0.000275 0.000600 245.987351 -16.538504 -25.234513 2.774888 -0.000045 -0.000026 0.000002 0.000001 -0.000000 9.533411 0.000023 0.000081 520.666085 -40.822798 130.785418 3.700039 0.000124 -0.000400 434.866670 -10.050424 7.699556 2.949994 0.000065 -0.000207 403.072740 6.186757 -2.442757 2.952868 -0.000018 0.000075 0.000001 0.000002 0.000002 9.104648 -0.042965 -1.865069 150.411707 -37.160057 103.693780 3.149955 0.000218 -0.000164 431.847426 13.580045 -9.859977 2.949903 0.000100 -0.000140 402.464689 30.580318 -12.125985 2.644325 0.000028 0.000056 -0.000001 -0.000001 0.000000 8.077884 -0.486805 -3.806237 520.182727 -24.859020 105.529059 3.599881 0.000234 0.014519 263.204891 163.210239 165.321983 2.099921 0.000089 0.007529 406.555536 33.481761 -14.732612 2.125498 0.000002 0.007517 0.000001 -0.000006 -0.000000 -8.207786 -6.751667 -1.599560 -0.077001 -0.000003 0.000080 -0.000002 -44.370110 0.345938 0.153719 -0.000000 -0.000000 0.000000 -44.423679 -3.043532 -0.076700 0.000000 -0.000002 -0.000006 -8.728667 10.710559 -0.000009 -0.000000 -0.000000 -0.000001 -0.000679 9.278123 0.000000 -0.000000 -0.000000 8.207792 -6.751710 -1.599556 -0.074518 -0.000003 0.000081 -0.000002 -44.370014 0.346960 0.148822 0.000002 0.000000 -0.000001 -44.423664 -3.044403 -0.074314 0.000000 -0.000002 -0.000004 -8.728671 10.710558 0.000007 -0.000000 -0.000000 0.000000 -0.000680 9.278137 -0.000000 0.000000 -0.000001 
